<?xml version="1.0" encoding="UTF-8"?>
<svg xmlns="http://www.w3.org/2000/svg" xmlns:xlink="http://www.w3.org/1999/xlink" width="px" height="px" viewBox="0 0 194 273" version="1.1">
<g id="surface1">
<path style=" stroke:none;fill-rule:nonzero;fill:rgb(14.901961%,30.19608%,89.411765%);fill-opacity:1;" d="M 193.859375 53.652344 L 176.195312 251.042969 L 96.808594 273 L 17.640625 251.074219 L 0 53.652344 Z M 193.859375 53.652344 "/>
<path style=" stroke:none;fill-rule:nonzero;fill:rgb(16.078432%,39.607844%,94.509804%);fill-opacity:1;" d="M 161.078125 238.472656 L 176.167969 69.792969 L 96.929688 69.792969 L 96.929688 256.214844 Z M 161.078125 238.472656 "/>
<path style=" stroke:none;fill-rule:nonzero;fill:rgb(92.156863%,92.156863%,92.156863%);fill-opacity:1;" d="M 40.445312 143.015625 L 42.621094 167.226562 L 96.929688 167.226562 L 96.929688 143.015625 Z M 40.445312 143.015625 "/>
<path style=" stroke:none;fill-rule:nonzero;fill:rgb(92.156863%,92.156863%,92.156863%);fill-opacity:1;" d="M 96.929688 94.007812 L 36.074219 94.007812 L 38.28125 118.21875 L 96.929688 118.21875 Z M 96.929688 94.007812 "/>
<path style=" stroke:none;fill-rule:nonzero;fill:rgb(92.156863%,92.156863%,92.156863%);fill-opacity:1;" d="M 96.929688 231.089844 L 96.929688 205.898438 L 96.824219 205.925781 L 69.792969 198.644531 L 68.066406 179.332031 L 43.703125 179.332031 L 47.105469 217.351562 L 96.816406 231.121094 Z M 96.929688 231.089844 "/>
<path style=" stroke:none;fill-rule:nonzero;fill:rgb(0%,0%,0%);fill-opacity:1;" d="M 45.625 0 L 75.015625 0 L 75.015625 12.265625 L 57.914062 12.265625 L 57.914062 24.527344 L 75.015625 24.527344 L 75.015625 36.792969 L 45.625 36.792969 Z M 45.625 0 "/>
<path style=" stroke:none;fill-rule:nonzero;fill:rgb(0%,0%,0%);fill-opacity:1;" d="M 80.894531 0 L 110.289062 0 L 110.289062 10.664062 L 93.1875 10.664062 L 93.1875 12.796875 L 110.289062 12.796875 L 110.289062 37.324219 L 80.894531 37.324219 L 80.894531 26.128906 L 97.996094 26.128906 L 97.996094 23.996094 L 80.894531 23.996094 Z M 80.894531 0 "/>
<path style=" stroke:none;fill-rule:nonzero;fill:rgb(0%,0%,0%);fill-opacity:1;" d="M 116.167969 0 L 145.5625 0 L 145.5625 10.664062 L 128.460938 10.664062 L 128.460938 12.796875 L 145.5625 12.796875 L 145.5625 37.324219 L 116.167969 37.324219 L 116.167969 26.128906 L 133.269531 26.128906 L 133.269531 23.996094 L 116.167969 23.996094 Z M 116.167969 0 "/>
<path style=" stroke:none;fill-rule:nonzero;fill:rgb(100%,100%,100%);fill-opacity:1;" d="M 126.730469 167.226562 L 123.914062 198.628906 L 96.84375 205.917969 L 96.84375 231.109375 L 146.597656 217.351562 L 146.960938 213.261719 L 152.664062 149.515625 L 153.257812 143.015625 L 157.640625 94.007812 L 96.84375 94.007812 L 96.84375 118.21875 L 131.042969 118.21875 L 128.835938 143.015625 L 96.84375 143.015625 L 96.84375 167.226562 Z M 126.730469 167.226562 "/>
</g>
</svg>
