<?xml version="1.0" encoding="UTF-8"?>
<svg xmlns="http://www.w3.org/2000/svg" xmlns:xlink="http://www.w3.org/1999/xlink" width="px" height="px" viewBox="0 0 256 256" version="1.1">
<g id="surface1">
<path style=" stroke:none;fill-rule:nonzero;fill:rgb(0%,0%,0%);fill-opacity:1;" d="M 54.199219 0 L 65.699219 0 L 65.699219 11.398438 L 76.300781 11.398438 L 76.300781 0 L 87.800781 0 L 87.800781 34.5 L 76.300781 34.5 L 76.300781 23 L 65.800781 23 L 65.800781 34.5 L 54.199219 34.5 M 103 11.5 L 92.851562 11.5 L 92.851562 0 L 124.699219 0 L 124.699219 11.5 L 114.5 11.5 L 114.5 34.5 L 103 34.5 M 129.75 0 L 141.800781 0 L 149.199219 12.148438 L 156.601562 0 L 168.648438 0 L 168.648438 34.5 L 157.148438 34.5 L 157.148438 17.398438 L 149.101562 29.800781 L 141.050781 17.398438 L 141.050781 34.5 L 129.75 34.5 M 174.351562 0 L 185.851562 0 L 185.851562 23.101562 L 202.148438 23.101562 L 202.148438 34.5 L 174.351562 34.5 "/>
<path style=" stroke:none;fill-rule:nonzero;fill:rgb(89.411765%,30.19608%,14.901961%);fill-opacity:1;" d="M 53.800781 235.5 L 37.300781 50.300781 L 218.699219 50.300781 L 202.199219 235.398438 L 127.851562 256 "/>
<path style=" stroke:none;fill-rule:nonzero;fill:rgb(94.509804%,39.607844%,16.078432%);fill-opacity:1;" d="M 128 240.25 L 128 65.5 L 202.148438 65.5 L 188 223.5 "/>
<path style=" stroke:none;fill-rule:nonzero;fill:rgb(92.156863%,92.156863%,92.156863%);fill-opacity:1;" d="M 71 88.148438 L 128 88.148438 L 128 110.851562 L 95.898438 110.851562 L 98 134.101562 L 128 134.101562 L 128 156.75 L 77.199219 156.75 M 78.199219 168.148438 L 101 168.148438 L 102.601562 186.300781 L 128 193.101562 L 128 216.800781 L 81.398438 203.800781 "/>
<path style=" stroke:none;fill-rule:nonzero;fill:rgb(100%,100%,100%);fill-opacity:1;" d="M 184.800781 88.148438 L 127.898438 88.148438 L 127.898438 110.851562 L 182.699219 110.851562 M 180.648438 134.101562 L 127.898438 134.101562 L 127.898438 156.800781 L 155.898438 156.800781 L 153.25 186.300781 L 127.898438 193.101562 L 127.898438 216.699219 L 174.398438 203.800781 "/>
</g>
</svg>
